<?xml version="1.0" standalone="no"?>
<!DOCTYPE svg PUBLIC "-//W3C//DTD SVG 20010904//EN"
 "http://www.w3.org/TR/2001/REC-SVG-20010904/DTD/svg10.dtd">
<svg version="1.0" xmlns="http://www.w3.org/2000/svg"
 width="16.000000pt" height="16.000000pt" viewBox="0 0 16.000000 16.000000"
 preserveAspectRatio="xMidYMid meet">
<metadata>
Created by potrace 1.11, written by Peter Selinger 2001-2013
</metadata>
<g transform="translate(0.000000,16.000000) scale(0.008247,-0.008247)"
fill="#000000" stroke="none">
<path d="M867 1934 c-1 -1 -31 -4 -67 -8 -36 -3 -78 -9 -95 -12 -16 -4 -37 -8
-45 -9 -8 -1 -22 -4 -30 -7 -150 -48 -196 -66 -252 -101 -119 -73 -193 -164
-214 -262 -20 -93 -7 -288 28 -408 6 -23 12 -46 14 -52 5 -24 67 -203 78 -230
8 -16 26 -59 42 -95 44 -102 124 -253 148 -279 11 -13 39 -32 61 -41 36 -16
78 -18 447 -16 l406 1 39 30 c26 21 53 61 86 125 57 112 151 337 162 390 1 3
12 39 25 80 13 41 24 77 25 80 24 110 23 108 31 170 15 113 7 221 -21 299 -16
45 -57 107 -85 127 -8 7 -26 22 -40 34 -93 82 -321 161 -508 176 -61 6 -231
11 -235 8z"/>
<path d="M625 350 c-57 -5 -62 -8 -56 -38 0 -5 179 -9 397 -9 331 0 397 2 401
14 3 8 1 19 -4 24 -11 11 -628 18 -738 9z"/>
<path d="M570 242 c-16 -6 -12 -31 8 -40 9 -5 190 -8 402 -8 l385 1 3 23 c2
12 0 23 -5 23 -20 3 -783 4 -793 1z"/>
<path d="M574 135 c-37 -27 34 -87 116 -98 19 -3 35 -6 35 -7 0 -12 343 -17
435 -6 68 8 158 33 188 52 24 16 31 63 10 65 -92 7 -774 2 -784 -6z"/>
</g>
</svg>
